# AST/ASF file generated using VICON BodyLanguage
# -----------------------------------------------
:version 1.10
:name VICON
:units
  mass 1.0
  length 0.45
  angle deg
:documentation
   .ast/.asf automatically generated from VICON data using
   VICON BodyBuilder and BodyLanguage model FoxedUp or BRILLIANT.MOD
:root
   order TX TY TZ RX RY RZ
   axis XYZ
   position 0 0 0  
   orientation 0 0 0 
:bonedata
  begin
     id 1 
     name lhipjoint
     direction 0.690799 -0.707083 0.151096 
     length 2.54797 
     axis 0 0 0  XYZ
  end
  begin
     id 2 
     name lfemur
     direction 0.34202 -0.939693 0  
     length 7.21646  
     axis 0 0 20  XYZ
    dof rx ry rz
    limits (-160.0 20.0)
           (-70.0 70.0)
           (-60.0 70.0)
  end
  begin
     id 3 
     name ltibia
     direction 0.34202 -0.939693 0   
     length 8.16759   
     axis 0 0 20   XYZ
    dof rx
    limits (-10.0 170.0)
  end
  begin
     id 4 
     name lfoot
     direction 0.0487203 -0.133858 0.989802   
     length 1.93375   
     axis -90 7.62852e-016 20   XYZ
    dof rx rz
    limits (-45.0 90.0)
           (-70.0 20.0)
  end
  begin
     id 5 
     name ltoes
     direction 1.53453e-011 -4.21783e-011 1   
     length 0.979747   
     axis -90 7.62852e-016 20   XYZ
    dof rx
    limits (-90.0 20.0)
  end
  begin
     id 6 
     name rhipjoint
     direction -0.694693 -0.703425 0.150315   
     length 2.56122  
     axis 0 0 0  XYZ 
  end
  begin
     id 7 
     name rfemur
     direction -0.34202 -0.939693 0   
     length 7.36786   
     axis 0 0 -20   XYZ
    dof rx ry rz
    limits (-160.0 20.0)
           (-70.0 70.0)
           (-70.0 60.0)
  end
  begin
     id 8 
     name rtibia
     direction -0.34202 -0.939693 0   
     length 8.07288   
     axis 0 0 -20   XYZ
    dof rx
    limits (-10.0 170.0)
 end
 begin
     id 9 
     name rfoot
     direction -0.0428397 -0.117701 0.992125   
     length 1.88295  
     axis -90 -7.62852e-016 -20   XYZ
    dof rx rz
    limits (-45.0 90.0)
           (-20.0 70.0)
  end
  begin
     id 10 
     name rtoes
     direction -1.53456e-011 -4.2187e-011 1   
     length 0.955578   
     axis -90 -7.62852e-016 -20   XYZ
    dof rx
    limits (-90.0 20.0)
  end
  begin
     id 11 
     name lowerback
     direction 0.0288145 0.999398 -0.0193241   
     length 1.92149   
     axis 0 0 0   XYZ
    dof rx ry rz
    limits (-20.0 45.0)
           (-30.0 30.0)
           (-30.0 30.0)
  end
  begin
     id 12 
     name upperback
     direction 0.0233784 0.998099 0.0570278   
     length 1.90435   
     axis 0 0 0   XYZ
    dof rx ry rz
    limits (-20.0 45.0)
           (-30.0 30.0)
           (-30.0 30.0)
  end
  begin
     id 13 
     name thorax
     direction 0.0096694 0.997833 0.0650817   
     length 1.9111   
     axis 0 0 0   XYZ
    dof rx ry rz
    limits (-20.0 45.0)
           (-30.0 30.0)
           (-30.0 30.0)
  end
  begin
     id 14 
     name lowerneck
     direction 0.00516803 0.999916 0.0118722   
     length 1.74664   
     axis 0 0 0   XYZ
    dof rx ry rz
    limits (-20.0 45.0)
           (-30.0 30.0)
           (-30.0 30.0)
  end
  begin
     id 15 
     name upperneck
     direction -0.0510851 0.996117 -0.071696   
     length 1.68498   
     axis 0 0 0   XYZ
    dof rx ry rz
    limits (-20.0 45.0)
           (-30.0 30.0)
           (-30.0 30.0)
  end
  begin
     id 16
     name head
     direction -0.019188 0.999436 -0.0275702  
     length 1.83483  
     axis 0 0 0   XYZ
    dof rx ry rz
    limits (-20.0 45.0)
           (-30.0 30.0)
           (-30.0 30.0)
  end
  begin
     id 17 
     name lclavicle
     direction 0.967006 0.248456 -0.0562957  
     length 3.39395  
     axis 0 0 0   XYZ
    dof ry rz
    limits (-20.0 10.0)
           (0.0 20.0)
  end
  begin
     id 18 
     name lhumerus
     direction 1 -4.48962e-011 -5.62711e-019   
     length 5.24318   
     axis 180 -30 -90   XYZ
    dof rx ry rz
    limits (-60.0 90.0)
           (-90.0 90.0)
           (-90.0 90.0)
  end
  begin
     id 19
     name lradius
     direction 1 -4.48966e-011 7.90625e-027   
     length 2.98999   
     axis 180 -30 -90   XYZ
    dof rx
    limits (-10.0 170.0)
  end
  begin
     id 20
     name lwrist
     direction 1 -4.48959e-011 1.61068e-026   
     length 1.49499   
     axis -9.31229e-015 90 90   XYZ
    dof ry
    limits (-180.0 0.0)
 end
  begin
     id 21 
     name lhand
     direction 1 -4.49017e-011 3.22136e-026   
     length 0.726745   
     axis -2.0555e-014 90 90   XYZ
    dof rx rz
    limits (-90.0 90.0)
           (-45.0 45.0)
  end
  begin
     id 22 
     name lfingers
     direction 1 -4.4898e-011 6.44272e-026   
     length 0.58592   
     axis -4.11101e-014 90 90   XYZ
    dof rx
    limits (0.0 90.0)
  end
  begin
     id 23
     name lthumb
     direction 0.707107 -6.34922e-011 0.707107   
     length 0.841268   
     axis -90 45 2.85299e-015   XYZ
    dof rx rz
    limits (-45.0 45.0)
           (-45.0 45.0)
  end
  begin
     id 24 
     name rclavicle
     direction -0.972232 0.230238 0.0419005   
     length 3.40416  
     axis 0 0 0   XYZ 
    dof ry rz
    limits (-10.0 20.0)
           (-20.0 0.0)
  end
  begin
     id 25 
     name rhumerus
     direction -1 -4.48976e-011 2.48487e-027  
     length 5.37045   
     axis 180 30 90   XYZ
    dof rx ry rz
    limits (-90.0 60.0)
           (-90.0 90.0)
           (-90.0 90.0)
  end
  begin
     id 26 
     name rradius
     direction -1 -4.48942e-011 7.87951e-027   
     length 2.92792   
     axis 180 30 90   XYZ
    dof rx
    limits (-10.0 170.0)
  end
  begin
     id 27 
     name rwrist
     direction -1 -4.48969e-011 1.61068e-026   
     length 1.46396   
     axis -9.31229e-015 -90 -90   XYZ
    dof ry
    limits (-180.0 0.0)
  end
  begin
     id 28
     name rhand
     direction -1 -4.49043e-011 3.22136e-026   
     length 0.784497   
     axis -2.0555e-014 -90 -90   XYZ
    dof rx rz
    limits (-90.0 90.0)
           (-45.0 45.0)
  end
  begin
     id 29
     name rfingers
     direction -1 -4.48823e-011 6.44272e-026   
     length 0.632482   
     axis -4.11101e-014 -90 -90   XYZ
    dof rx
    limits (0.0 90.0)
  end
  begin
     id 30
     name rthumb
     direction -0.707107 -6.34923e-011 0.707107   
     length 0.908121   
     axis -90 -45 -2.85299e-015   XYZ
    dof rx rz
    limits (-45.0 45.0)
           (-45.0 45.0)
  end
:hierarchy
  begin
    root lhipjoint rhipjoint lowerback
    lhipjoint lfemur
    lfemur ltibia
    ltibia lfoot
    lfoot ltoes
    rhipjoint rfemur
    rfemur rtibia
    rtibia rfoot
    rfoot rtoes
    lowerback upperback
    upperback thorax
    thorax lowerneck lclavicle rclavicle
    lowerneck upperneck
    upperneck head
    lclavicle lhumerus
    lhumerus lradius
    lradius lwrist
    lwrist lhand lthumb
    lhand lfingers
    rclavicle rhumerus
    rhumerus rradius
    rradius rwrist
    rwrist rhand rthumb
    rhand rfingers
  end

#!OML:ASF E:\Style6\Style6.ASF
:FULLY-SPECIFIED
:DEGREES
347
root 0.888331 17.9084 -0.00967373 3.79875 -14.0394 -1.09657
lowerback -0.592639 -0.521122 0.168212
upperback -3.83074 -0.561561 5.24276
thorax -3.57332 -0.201259 5.36387
lowerneck -3.22468 5.34854 6.71672
upperneck 17.4989 8.21477 -9.10257
head 6.47424 3.77224 -3.46165
rclavicle 6.85807e-015 -2.22639e-014
rhumerus 3.46191 35.8864 -78.0186
rradius 85.803
rwrist -4.07644
rhand 12.786 0.0326994
rfingers 7.12502
rthumb 37.7637 -25.8304
lclavicle 6.85807e-015 -2.22639e-014
lhumerus 33.0018 -56.4009 42.5208
lradius 55.4845
lwrist 15.7548
lhand -0.287087 18.2822
lfingers 7.12502
lthumb 25.3154 46.6221
rfemur -18.8219 6.33665 16.847
rtibia 26.2052
rfoot -5.22122 2.42403
rtoes -7.62099
lfemur -13.8284 4.27183 -19.37
ltibia 29.6824
lfoot -11.6627 11.6025
ltoes -18.2923
348
root 0.881662 17.8989 -0.0300928 3.85386 -13.7402 -1.26048
lowerback -0.513188 -0.476311 0.256795
upperback -3.84162 -0.496046 5.26462
thorax -3.63629 -0.169752 5.33646
lowerneck -3.45959 5.3238 6.75684
upperneck 17.9132 8.1886 -9.04578
head 6.64472 3.75299 -3.44711
rclavicle -3.67752e-015 -1.59028e-015
rhumerus 5.34534 35.5881 -78.0363
rradius 83.4642
rwrist -4.85115
rhand 9.64729 0.371906
rfingers 7.12502
rthumb 34.7917 -26.2325
lclavicle -3.67752e-015 -1.59028e-015
lhumerus 34.2831 -55.2247 42.9069
lradius 52.9215
lwrist 14.9532
lhand -0.203689 17.5165
lfingers 7.12502
lthumb 25.3953 45.8451
rfemur -18.9752 6.17302 17.0668
rtibia 26.4248
rfoot -5.28206 2.29731
rtoes -8.60831
lfemur -14.1775 4.48912 -19.1264
ltibia 30.0446
lfoot -11.6869 11.2091
ltoes -18.9995
349
root 0.880601 17.8884 -0.0507094 3.89696 -13.3035 -1.29658
lowerback -0.422326 -0.485196 0.305898
upperback -3.86348 -0.503066 5.23982
thorax -3.71029 -0.17382 5.28428
lowerneck -3.71945 5.33581 6.74212
upperneck 18.3318 8.20494 -8.92016
head 6.82062 3.75526 -3.397
rclavicle 1.10325e-014 -2.06736e-014
rhumerus 7.18365 35.3305 -78.0628
rradius 80.9549
rwrist -5.61678
rhand 6.47095 0.883988
rfingers 7.12502
rthumb 31.772 -26.3674
lclavicle 1.10325e-014 -2.06736e-014
lhumerus 35.3478 -53.9808 43.5923
lradius 50.4067
lwrist 14.3328
lhand -0.43435 16.9504
lfingers 7.12502
lthumb 25.1743 45.3102
rfemur -19.1489 5.8541 17.1268
rtibia 26.6624
rfoot -5.33945 2.25748
rtoes -7.8102
lfemur -14.5663 4.49762 -19.0264
ltibia 30.3691
lfoot -11.7397 10.829
ltoes -19.3285
350
root 0.87952 17.8824 -0.0707089 3.93944 -12.7815 -1.28449
lowerback -0.273558 -0.542252 0.414803
upperback -3.96066 -0.570226 5.1366
thorax -3.89114 -0.209388 5.11951
lowerneck -3.78085 5.37218 6.85186
upperneck 18.6603 8.25337 -8.8457
head 6.94307 3.78489 -3.38644
rclavicle 2.21645e-014 -1.59028e-015
rhumerus 8.84429 34.9475 -78.4741
rradius 78.2739
rwrist -6.00015
rhand 3.61769 1.27705
rfingers 7.12502
rthumb 29.0506 -26.478
lclavicle 2.21645e-014 -1.59028e-015
lhumerus 36.2083 -52.8409 44.4146
lradius 47.8715
lwrist 14.1958
lhand -1.06256 16.5762
lfingers 7.12502
lthumb 24.5722 45.0193
rfemur -19.336 5.51592 17.1249
rtibia 26.9145
rfoot -5.40402 2.22712
rtoes -5.72494
lfemur -14.9442 4.46994 -18.9743
ltibia 30.6404
lfoot -11.7873 10.3597
ltoes -19.4628
351
root 0.87244 17.8798 -0.0891673 3.96848 -12.2793 -1.28026
lowerback -0.148495 -0.591038 0.549414
upperback -4.04642 -0.628737 4.97229
thorax -4.04842 -0.243395 4.87531
lowerneck -3.79424 5.37611 7.07477
upperneck 18.9405 8.24838 -8.801
head 7.04318 3.79672 -3.41018
rclavicle 8.24956e-015 4.77083e-015
rhumerus 10.5105 34.4836 -79.1184
rradius 75.4027
rwrist -6.38343
rhand 0.787846 1.64193
rfingers 7.12502
rthumb 26.3448 -26.5482
lclavicle 8.24956e-015 4.77083e-015
lhumerus 36.7992 -51.6535 45.5467
lradius 45.262
lwrist 14.0427
lhand -1.44733 16.567
lfingers 7.12502
lthumb 24.2034 45.0597
rfemur -19.4863 5.26281 17.1513
rtibia 27.163
rfoot -5.51475 2.06381
rtoes -4.94324
lfemur -15.2788 4.53775 -18.9068
ltibia 30.9038
lfoot -11.792 9.83277
ltoes -19.2623
352
root 0.86673 17.874 -0.103039 4.03228 -11.8653 -1.33086
lowerback -0.105526 -0.60091 0.691803
upperback -4.12026 -0.636065 4.88898
thorax -4.15107 -0.251728 4.7093
lowerneck -3.89575 5.37206 7.12553
upperneck 19.3229 8.23828 -8.67939
head 7.18168 3.79666 -3.37869
rclavicle 5.56597e-015 -3.33958e-014
rhumerus 12.015 34.1284 -79.6071
rradius 72.484
rwrist -7.11986
rhand -2.21096 2.23879
rfingers 7.12502
rthumb 23.471 -26.3495
lclavicle 5.56597e-015 -3.33958e-014
lhumerus 36.9231 -50.2231 47.4317
lradius 42.7031
lwrist 13.6055
lhand -1.83111 16.6868
lfingers 7.12502
lthumb 23.8354 45.228
rfemur -19.6251 4.97748 17.2421
rtibia 27.3768
rfoot -5.65689 1.97355
rtoes -5.49432
lfemur -15.6195 4.68058 -18.8014
ltibia 31.1903
lfoot -11.8539 9.39665
ltoes -19.5831
353
root 0.863019 17.8616 -0.116212 4.09521 -11.5131 -1.38217
lowerback -0.310228 -0.582246 0.0922822
upperback -4.02293 -0.620612 5.35908
thorax -3.92779 -0.217555 5.54149
lowerneck -4.1105 5.35236 6.69885
upperneck 19.5951 8.30806 -8.87443
head 7.30385 3.77551 -3.36146
rclavicle 4.09496e-014 -7.4743e-014
rhumerus 13.8376 34.1091 -79.0988
rradius 69.4752
rwrist -8.23625
rhand -5.23613 3.07043
rfingers 7.12502
rthumb 20.5665 -25.8601
lclavicle 4.09496e-014 -7.4743e-014
lhumerus 36.5286 -48.0359 50.9164
lradius 39.9358
lwrist 12.5955
lhand -2.58269 16.4353
lfingers 7.12502
lthumb 23.1144 45.0687
rfemur -19.7453 4.67037 17.337
rtibia 27.5668
rfoot -5.77511 1.9361
rtoes -6.89066
lfemur -15.9566 4.81257 -18.7053
ltibia 31.4974
lfoot -11.9601 8.95487
ltoes -19.706
354
root 0.858315 17.8511 -0.130875 4.08883 -11.1581 -1.4238
lowerback -0.140636 -0.580011 0.46993
upperback -4.08416 -0.608498 5.0947
thorax -4.09299 -0.22659 5.05024
lowerneck -4.24798 5.38977 6.94349
upperneck 19.953 8.3064 -8.63263
head 7.4464 3.80231 -3.32061
rclavicle 1.0635e-014 3.49861e-014
rhumerus 15.1005 33.5036 -80.2149
rradius 66.3206
rwrist -9.49853
rhand -7.9306 3.82184
rfingers 7.12502
rthumb 17.9756 -25.3675
lclavicle 1.0635e-014 3.49861e-014
lhumerus 36.0625 -46.1148 53.5357
lradius 37.3229
lwrist 11.1987
lhand -3.05213 15.85
lfingers 7.12502
lthumb 22.6639 44.5392
rfemur -19.7694 4.45493 17.4237
rtibia 27.6998
rfoot -5.84849 1.83957
rtoes -8.5511
lfemur -16.2449 4.90721 -18.607
ltibia 31.8355
lfoot -12.0743 8.48405
ltoes -19.2606
355
root 0.850782 17.846 -0.145033 4.08969 -10.6995 -1.4283
lowerback -0.118753 -0.605088 0.606477
upperback -4.06861 -0.642273 4.96176
thorax -4.08799 -0.250753 4.8332
lowerneck -4.47759 5.41337 7.09801
upperneck 20.2832 8.31568 -8.53267
head 7.59985 3.81545 -3.30794
rclavicle 5.76476e-015 5.88403e-014
rhumerus 16.4935 32.9426 -81.0314
rradius 63.2548
rwrist -11.2919
rhand -10.6347 4.01624
rfingers 7.12502
rthumb 15.3724 -25.3923
lclavicle 5.76476e-015 5.88403e-014
lhumerus 35.6681 -43.9035 56.4387
lradius 34.7852
lwrist 9.83595
lhand -3.11224 15.3854
lfingers 7.12502
lthumb 22.6062 44.0817
rfemur -19.7717 4.21631 17.4677
rtibia 27.7513
rfoot -5.85766 1.6786
rtoes -8.88357
lfemur -16.5718 4.95551 -18.5407
ltibia 32.2092
lfoot -12.2458 7.97409
ltoes -18.7434
356
root 0.842527 17.8346 -0.158465 4.13931 -10.2962 -1.63169
lowerback -0.0607684 -0.594429 0.812437
upperback -4.09319 -0.619345 4.96996
thorax -4.15037 -0.245379 4.72579
lowerneck -4.6237 5.41524 7.15598
upperneck 20.5765 8.31366 -8.4665
head 7.72275 3.81677 -3.29356
rclavicle -1.49089e-014 2.38542e-014
rhumerus 17.7544 32.424 -81.6829
rradius 60.4104
rwrist -13.3813
rhand -12.9859 3.75925
rfingers 7.12502
rthumb 13.1068 -25.8089
lclavicle -1.49089e-014 2.38542e-014
lhumerus 35.108 -41.3794 59.8543
lradius 32.3535
lwrist 8.25051
lhand -3.07745 15.3112
lfingers 7.12502
lthumb 22.6396 44.0034
rfemur -19.7439 4.0203 17.7436
rtibia 27.7434
rfoot -5.8954 1.44269
rtoes -11.5489
lfemur -16.9418 5.0091 -18.2536
ltibia 32.6084
lfoot -12.3622 7.59001
ltoes -18.911
357
root 0.831313 17.8235 -0.170108 4.09603 -10.0064 -2.06167
lowerback 0.186591 -0.579444 1.24212
upperback -4.10513 -0.57609 5.0245
thorax -4.31062 -0.236555 4.54298
lowerneck -4.84146 5.43541 7.17753
upperneck 21.0173 8.33106 -8.32163
head 7.90516 3.82727 -3.24396
rclavicle -1.19271e-015 7.95139e-015
rhumerus 18.9968 32.032 -82.3332
rradius 57.5971
rwrist -15.402
rhand -14.7131 3.92864
rfingers 7.12502
rthumb 11.4414 -25.7392
lclavicle -1.19271e-015 7.95139e-015
lhumerus 34.1985 -38.2881 63.7719
lradius 29.9757
lwrist 5.90541
lhand -3.08315 15.1206
lfingers 7.12502
lthumb 22.6342 43.8134
rfemur -19.6215 3.97131 18.2811
rtibia 27.8229
rfoot -6.00103 1.21746
rtoes -13.9252
lfemur -17.122 5.19204 -17.7013
ltibia 32.926
lfoot -12.4236 7.22606
ltoes -19.6467
358
root 0.819523 17.8163 -0.183289 3.99364 -9.69853 -2.41822
lowerback 0.619242 -0.570867 1.74999
upperback -4.19215 -0.528212 4.94172
thorax -4.65645 -0.23033 4.17673
lowerneck -5.03896 5.43552 7.36456
upperneck 21.5439 8.30656 -8.18425
head 8.11779 3.83008 -3.22971
rclavicle 7.85199e-015 -1.59028e-014
rhumerus 20.1144 31.892 -82.8826
rradius 54.9443
rwrist -17.3479
rhand -16.4661 4.47956
rfingers 7.12502
rthumb 9.75045 -25.2747
lclavicle 7.85199e-015 -1.59028e-014
lhumerus 33.2428 -35.5038 67.3198
lradius 28.0636
lwrist 3.98587
lhand -3.76196 15.3024
lfingers 7.12502
lthumb 21.9825 44.0733
rfemur -19.512 3.88606 18.739
rtibia 27.974
rfoot -6.07539 1.04142
rtoes -14.3254
lfemur -17.2057 5.36437 -17.2239
ltibia 33.1764
lfoot -12.4707 6.76835
ltoes -19.6768
359
root 0.815353 17.8119 -0.193304 3.97561 -9.33056 -1.97465
lowerback 0.681958 -0.574663 1.21387
upperback -4.25496 -0.546181 4.87573
thorax -4.75213 -0.218424 4.41414
lowerneck -5.25236 5.42303 7.37042
upperneck 21.9261 8.31088 -8.20634
head 8.28692 3.82098 -3.23485
rclavicle 5.46658e-015 3.02153e-014
rhumerus 20.4203 30.116 -84.8698
rradius 52.0759
rwrist -16.8278
rhand -17.0877 5.42115
rfingers 7.12502
rthumb 9.15075 -24.3603
lclavicle 5.46658e-015 3.02153e-014
lhumerus 32.6567 -32.9646 70.6213
lradius 26.4606
lwrist 3.01766
lhand -5.24754 15.6272
lfingers 7.12502
lthumb 20.5556 44.5589
rfemur -19.6785 3.4489 18.286
rtibia 28.2131
rfoot -6.17208 1.12844
rtoes -14.6581
lfemur -17.4554 5.4093 -17.6901
ltibia 33.3483
lfoot -12.5257 6.44284
ltoes -20.0669
